@startuml
skinparam monochrome true
skinparam classAttributeIconSize 0
!startsub default
class MouseScrollEvent {
    + ScrollAmount : short <<get>> <<set>>
    + HWnd : string <<get>> <<set>>
}
abstract class MouseEvent {
    + MousePosition : System.Windows.Point <<get>> <<set>>
}
abstract class Event
!endsub
MouseEvent <|-- MouseScrollEvent
Event <|-- MouseEvent
@enduml
