@startuml
skinparam monochrome true
skinparam ClassAttributeIconSize 0
!startsub default
class NavigationEventProducer {
    + <<override>> Notify(eventJson:System.Text.Json.JsonElement) : void
}
abstract class "WebBrowserEventProducer<T>" {
}
enum "EventLabel"
!endsub
"WebBrowserEventProducer<T>" "<NavigationEvent>" <|-- NavigationEventProducer
NavigationEventProducer --> "HandledEventLabel" EventLabel
@enduml
