@startuml
skinparam monochrome true
skinparam ClassAttributeIconSize 0
class TextSelectionEventProducer {
    + <<override>> Notify(eventJson:JsonElement) : void
}
class "WebBrowserEventProducer<T>" {
}
enum "EventLabel"
"WebBrowserEventProducer<T>" "    <TextSelectionEvent>" <|-- TextSelectionEventProducer
TextSelectionEventProducer --> "HandledEventLabel" EventLabel
@enduml
