@startuml
class JsonIntermediateFormatSerializer {
    + Initialize() : void
    + IsActive : bool <<get>> <<set>>
}
class "DefaultEncodeableEventQueue`1"<T> {
}
"DefaultEncodeableEventQueue`1" "<JsonIntermediateFormatSample>" <|-- JsonIntermediateFormatSerializer
ITransformingModule <|-- JsonIntermediateFormatSerializer
JsonIntermediateFormatSerializer o-> "Identifier" Guid
@enduml
