@startuml
class MonitorInfo {
    + IsPrimary : bool <<get>> <<set>>
    + DeviceName : string <<get>> <<set>>
}
class MonitorEnumerationHelper <<static>> {
    + {static} GetMonitors() : IEnumerable<MonitorInfo>
}
class RECT <<struct>> {
    + <<readonly>> left : int
    + <<readonly>> top : int
    + <<readonly>> right : int
    + <<readonly>> bottom : int
}
class MonitorInfoEx <<struct>> {
    + Size : int
    + <<readonly>> Flags : uint
    + <<readonly>> DeviceName : string
}
MonitorInfo --> "ScreenSize" Vector2
MonitorInfo --> "MonitorArea" Rect
MonitorInfo --> "WorkArea" Rect
MonitorInfo --> "Hmon" IntPtr
MonitorEnumerationHelper +-- RECT
MonitorEnumerationHelper +-- MonitorInfoEx
MonitorInfoEx --> "Monitor" RECT
MonitorInfoEx --> "WorkArea" RECT
@enduml
