@startuml
skinparam linetype ortho
skinparam monochrome true
skinparam classAttributeIconSize 0
class TabListener {
    + TabListener(callback : function(BrowserEvent) : void)
    + start()
    + stop()
}
interface IListener {
    + IListener(callback : function(BrowserEvent) : void)
    + start() : void
    + stop() : void
}
TabListener .UP.|> IListener : implements
TabListener ..> OpenTabEvent : creates
TabListener ..> CloseTabEvent : creates
TabListener ..> SwitchTabEvent : creates
TabListener ..> NavigationEvent : creates

@enduml
