@startuml(id=default)
skinparam monochrome true
skinparam classAttributeIconSize 0

!startsub default
abstract class "DefaultEncodableEventQueue<T>" {
    
}
abstract class "BaseEventQueue<T>" {
    + IsClosed : bool <<get>>
    + GetEvents() : IAsyncEnumerable<TEvent>
    + Enqueue(@event:TEvent) : void
    + Open() : void
    + Close() : void
}
interface "IEncodableEventQueue<T>"
abstract class "BaseEventQueue<T>"
"IEncodableEventQueue<T>" <|-- "DefaultEncodableEventQueue<T>"
"BaseEventQueue<T>" <|-- "DefaultEncodableEventQueue<T>"
!endsub
@enduml