@startuml
skinparam monochrome true
skinparam ClassAttributeIconSize 0
class MouseModule {
}
interface IModule {
    + Identifier : Guid
    + IsActive : bool <<get>> <<set>>
    + Initialize() : void
}
IModule <|-- ICollectingModule
ICollectingModule <|-- MouseModule
MouseModule --> "  MouseScrollEventProducer" MouseScrollEventProducer
MouseModule --> " MouseMoveEventProducer " MouseMoveEventProducer
MouseModule --> "   MouseClickEventProducer" MouseClickEventProducer
@enduml
